<svg data-name="Group 39881" xmlns="http://www.w3.org/2000/svg" width="193.258" height="130.15" viewBox="0 0 193.258 130.15">
    <defs>
        <clipPath id="wg5ld5dd5a">
            <path data-name="Rectangle 22624" style="fill:none" d="M0 0h193.258v130.15H0z"/>
        </clipPath>
    </defs>
    <g data-name="Group 39878" style="clip-path:url(#wg5ld5dd5a)">
        <path data-name="Path 78164" d="M92.349 66.265H81.871V26.672H91.6V32.3a20.312 20.312 0 0 1 3.645-4.6 8.289 8.289 0 0 1 5.425-1.906 13.25 13.25 0 0 1 6.875 1.947l-3.227 9.159a9.277 9.277 0 0 0-4.929-1.739q-4.6 0-6.13 5.591-.87 3.189-.911 13.294z" transform="translate(-22.593 -7.12)" style="fill:#fff"/>
        <path data-name="Rectangle 22623" transform="translate(99.037 19.552)" style="fill:#fff" d="M0 0h10.478v52.776H0z"/>
        <path data-name="Path 78165" d="M208.349 41.394a14.81 14.81 0 0 1-1.145 5.894 13.51 13.51 0 0 1-3.308 4.665 15.194 15.194 0 0 1-5.216 3.1 20.12 20.12 0 0 1-6.87 1.1h-5v24.091h-11.2V26.72h16.2a20.155 20.155 0 0 1 6.87 1.1 15.239 15.239 0 0 1 5.216 3.1 13.524 13.524 0 0 1 3.308 4.665 14.6 14.6 0 0 1 1.145 5.81m-11.2-.043a32.654 32.654 0 0 0-.34-4.86 7.3 7.3 0 0 0-1.808-3.657c-.65-.62-2.348-.744-3.2-.744h-5v19.12h5a4.735 4.735 0 0 0 2.784-1.109 8.444 8.444 0 0 0 2.22-3.891 32.64 32.64 0 0 0 .34-4.86" transform="translate(-48.461 -7.374)" style="fill:#fff"/>
        <path data-name="Path 78166" d="M79.9 135.166a26.081 26.081 0 0 1 2.142-10.547 17.8 17.8 0 0 1 6.148-7.749 15.645 15.645 0 0 1 21 3.379q4.8 6.006 4.766 15.347 0 9.341-4.732 15.455A14.827 14.827 0 0 1 97 157.25a15.715 15.715 0 0 1-8.634-2.54 16.422 16.422 0 0 1-6.338-7.577 30.087 30.087 0 0 1-2.128-11.967m8.98.56a17.6 17.6 0 0 0 1.865 8.7q2.176 3.961 6.183 3.96 4.041 0 6.183-4a18.492 18.492 0 0 0 1.9-8.739 17.658 17.658 0 0 0-1.9-8.61q-2.211-3.917-6.183-3.918-4.008 0-6.183 3.961a17.508 17.508 0 0 0-1.865 8.653" transform="translate(-22.05 -31.527)" style="fill:#fff"/>
        <path data-name="Path 78167" d="M171.917 156.557h-9.99V135.8q0-4.891-.158-6.209-.514-3.785-2.527-5.317a5.745 5.745 0 0 0-3.475-1.064q-5.766 0-7.463 5.614-.829 2.511-.829 9.315v18.417H136.91V115.9h9.855v6q4.975-6.9 12.477-6.9 6.989 0 10.147 4.551 2.566 3.532 2.567 11.74z" transform="translate(-37.782 -31.736)" style="fill:#fff"/>
        <path data-name="Path 78168" d="m218.637 143.6 9.487 1.785Q224.4 157.46 212.5 157.46q-9.412 0-13.929-6.928-3.577-5.524-3.577-14.025 0-9.179 4.142-15.088A14.285 14.285 0 0 1 211.522 115q9.148 0 13.515 7.225 3.764 6.29 3.614 17.084h-23.83a12.278 12.278 0 0 0 1.958 7.055 6.667 6.667 0 0 0 5.8 3.06q4.554 0 6.061-5.822m.565-10.88a12.72 12.72 0 0 0-1.77-6.587 6.053 6.053 0 0 0-5.346-2.932 6.165 6.165 0 0 0-5.383 2.89 11.076 11.076 0 0 0-1.732 6.63z" transform="translate(-53.811 -31.736)" style="fill:#fff"/>
        <path data-name="Path 78169" d="M55.944 6.239H20.827a7.132 7.132 0 0 1 .787 9.192l7.105.043h.014l.042 45.391h11.017l-.041-45.391h16.193z" transform="translate(-5.747 -1.722)" style="fill:#fff"/>
        <path data-name="Path 78170" d="M12.183 5.446a7.129 7.129 0 1 0 2.107 5.065 7.12 7.12 0 0 0-2.107-5.065" transform="translate(0 -.929)" style="fill:#c4a15f"/>
        <path data-name="Path 78171" d="M148.223 7.145A7.145 7.145 0 1 1 141.078 0a7.145 7.145 0 0 1 7.145 7.145" transform="translate(-36.96)" style="fill:#c4a15f"/>
        <path data-name="Path 78172" d="M261.47 159.722a7.145 7.145 0 1 1-7.145-7.145 7.145 7.145 0 0 1 7.145 7.145" transform="translate(-68.212 -42.105)" style="fill:#c4a15f"/>
        <path data-name="Path 78173" d="M53.2 129.945q0 12.44-7.472 18.978a16.748 16.748 0 0 1-6.478 3.876 45.633 45.633 0 0 1-5.633.786l5.579 5.579h-8.07l-9.51-9.51 9.51-9.51h6.867l-3.942 5.141a6.9 6.9 0 0 0 .683-.126c3.614-.815 4.836-3.056 6.065-6.723a28.726 28.726 0 0 0 1.109-8.934q0-9.816-4.225-13.363a10.851 10.851 0 0 0-5.052-2.326 57.889 57.889 0 0 0-8.982-.443h-4.885v32.268s.03 8.1.036 8.2h-11v-48.7h19.988a43.258 43.258 0 0 1 10.3.923q9.608 2.508 13.339 12.368a32.9 32.9 0 0 1 1.773 11.516" transform="translate(-2.154 -29.014)" style="fill:#c4a15f"/>
    </g>
</svg>
